<svg width="25" height="25" viewBox="0 0 25 25" fill="none" xmlns="http://www.w3.org/2000/svg">
<path d="M21.2351 19.2131V20.2243H3.0332V19.2131L5.05563 17.1907V11.1234C5.05563 7.98863 7.1084 5.22801 10.1117 4.33814V4.04489C10.1117 3.50851 10.3248 2.9941 10.7041 2.61482C11.0833 2.23554 11.5978 2.02246 12.1341 2.02246C12.6705 2.02246 13.1849 2.23554 13.5642 2.61482C13.9435 2.9941 14.1566 3.50851 14.1566 4.04489V4.33814C17.1599 5.22801 19.2126 7.98863 19.2126 11.1234V17.1907L21.2351 19.2131ZM14.1566 21.2356C14.1566 21.7719 13.9435 22.2863 13.5642 22.6656C13.1849 23.0449 12.6705 23.258 12.1341 23.258C11.5978 23.258 11.0833 23.0449 10.7041 22.6656C10.3248 22.2863 10.1117 21.7719 10.1117 21.2356" fill="#B5B5B5"/>
</svg>
