<svg width="20" height="23" viewBox="0 0 20 23" fill="none" xmlns="http://www.w3.org/2000/svg">
<path d="M5.71429 0C6.50446 0 7.14286 0.642383 7.14286 1.4375V2.875H12.8571V1.4375C12.8571 0.642383 13.4955 0 14.2857 0C15.0759 0 15.7143 0.642383 15.7143 1.4375V2.875H17.8571C19.0402 2.875 20 3.84082 20 5.03125V7.1875H0V5.03125C0 3.84082 0.959821 2.875 2.14286 2.875H4.28571V1.4375C4.28571 0.642383 4.92411 0 5.71429 0ZM0 8.625H20V20.8438C20 22.0342 19.0402 23 17.8571 23H2.14286C0.959821 23 0 22.0342 0 20.8438V8.625ZM14.6875 13.7012C15.1071 13.2789 15.1071 12.5961 14.6875 12.1783C14.2679 11.7605 13.5893 11.7561 13.1741 12.1783L8.93304 16.4459L6.83482 14.3346C6.41518 13.9123 5.73661 13.9123 5.32143 14.3346C4.90625 14.7568 4.90179 15.4396 5.32143 15.8574L8.17857 18.7324C8.59821 19.1547 9.27679 19.1547 9.69197 18.7324L14.6875 13.7012Z" fill="#2EAFF0"/>
</svg>
