<svg width="25" height="25" viewBox="0 0 25 25" fill="none" xmlns="http://www.w3.org/2000/svg">
<path d="M3.75 5C3.75 3.62109 4.87109 2.5 6.25 2.5H12.5C13.8789 2.5 15 3.62109 15 5V13.75C16.7266 13.75 18.125 15.1484 18.125 16.875V17.3438C18.125 17.7734 18.4766 18.125 18.9062 18.125C19.3359 18.125 19.6875 17.7734 19.6875 17.3438V12.3555C18.418 11.957 17.5 10.7734 17.5 9.375V8.125C17.5 7.78125 17.7812 7.5 18.125 7.5H18.75V5.625C18.75 5.28125 19.0312 5 19.375 5C19.7188 5 20 5.28125 20 5.625V7.5H21.25V5.625C21.25 5.28125 21.5312 5 21.875 5C22.2188 5 22.5 5.28125 22.5 5.625V7.5H23.125C23.4688 7.5 23.75 7.78125 23.75 8.125V9.375C23.75 10.7734 22.832 11.957 21.5625 12.3555V17.3438C21.5625 18.8125 20.375 20 18.9062 20C17.4375 20 16.25 18.8125 16.25 17.3438V16.875C16.25 16.1836 15.6914 15.625 15 15.625V20.6797C15.3633 20.8086 15.625 21.1562 15.625 21.5625C15.625 22.082 15.207 22.5 14.6875 22.5H4.0625C3.54297 22.5 3.125 22.082 3.125 21.5625C3.125 21.1523 3.38672 20.8086 3.75 20.6797V5ZM6.98047 9.91016H8.50391L7.6875 12.5234C7.59375 12.8203 7.81641 13.125 8.12891 13.125C8.24219 13.125 8.34766 13.0859 8.43359 13.0117L12.1289 9.80859C12.25 9.70312 12.3203 9.55078 12.3203 9.39062C12.3203 9.08594 12.0742 8.83984 11.7695 8.83984H10.2461L11.0625 6.22656C11.1563 5.92969 10.9336 5.625 10.6211 5.625C10.5078 5.625 10.4023 5.66406 10.3164 5.73828L6.62109 8.94141C6.5 9.04688 6.42969 9.19922 6.42969 9.35938C6.42969 9.66406 6.67578 9.91016 6.98047 9.91016Z" fill="#49B149"/>
</svg>
