<svg width="26" height="19" viewBox="0 0 26 19" fill="none" xmlns="http://www.w3.org/2000/svg">
<path d="M8.8141 14.625L22.9391 0.5C23.2724 0.166667 23.6613 0 24.1058 0C24.5502 0 24.9391 0.166667 25.2724 0.5C25.6058 0.833334 25.7724 1.22944 25.7724 1.68833C25.7724 2.14722 25.6058 2.54278 25.2724 2.875L9.98077 18.2083C9.64744 18.5417 9.25855 18.7083 8.8141 18.7083C8.36966 18.7083 7.98077 18.5417 7.64744 18.2083L0.480769 11.0417C0.147436 10.7083 -0.0125641 10.3128 0.00076923 9.855C0.0141026 9.39722 0.187991 9.00111 0.522435 8.66667C0.85688 8.33222 1.25299 8.16555 1.71077 8.16667C2.16855 8.16778 2.5641 8.33444 2.89744 8.66667L8.8141 14.625Z" fill="#14AE5C"/>
</svg>
