<svg width="25" height="25" viewBox="0 0 25 25" fill="none" xmlns="http://www.w3.org/2000/svg">
<path d="M22.754 13.1836C22.5174 12.2999 22.0772 11.4839 21.4686 10.8008C20.86 10.1178 20.0999 9.58679 19.2492 9.25029C18.3985 8.91379 17.4808 8.78116 16.5696 8.86302C15.6585 8.94488 14.7791 9.23895 14.002 9.72169L15.6026 3.33107C15.6423 3.1723 15.6312 3.00506 15.5707 2.85297C15.5103 2.70088 15.4036 2.57161 15.2657 2.48341C14.6012 2.06384 13.8592 1.78221 13.0836 1.65529C12.3081 1.52837 11.515 1.55875 10.7514 1.74463C9.98786 1.9305 9.2695 2.26807 8.63908 2.73725C8.00866 3.20642 7.47906 3.79762 7.08179 4.47566C6.68452 5.1537 6.4277 5.90472 6.32661 6.68404C6.22553 7.46336 6.28224 8.25506 6.49338 9.01201C6.70452 9.76896 7.06577 10.4757 7.55563 11.0902C8.04549 11.7047 8.65395 12.2144 9.34481 12.5889L3.00985 14.3985C2.85247 14.4433 2.71314 14.5364 2.61151 14.6646C2.50988 14.7929 2.4511 14.9498 2.44345 15.1133C2.38332 16.4472 2.78059 17.7616 3.56947 18.8389C4.35835 19.9162 5.49152 20.6918 6.78134 21.0371C7.27881 21.1707 7.79163 21.2387 8.30673 21.2393C9.09165 21.2372 9.86817 21.0776 10.5903 20.77C11.3124 20.4624 11.9655 20.0129 12.5108 19.4484C13.056 18.8838 13.4825 18.2155 13.7648 17.4831C14.0471 16.7507 14.1796 15.9691 14.1544 15.1846L18.8888 19.7666C19.0065 19.8805 19.1571 19.9545 19.3192 19.9782C19.4813 20.0019 19.6467 19.974 19.7921 19.8985C20.9767 19.2838 21.916 18.2832 22.4546 17.0622C22.9932 15.8412 23.0988 14.4728 22.754 13.1836ZM12.7384 14.4385C12.355 14.4856 11.9662 14.418 11.6212 14.2442C11.2762 14.0704 10.9905 13.7982 10.8003 13.462C10.61 13.1258 10.5237 12.7407 10.5522 12.3555C10.5808 11.9703 10.723 11.6021 10.9608 11.2977C11.1986 10.9933 11.5213 10.7662 11.8881 10.6452C12.255 10.5241 12.6495 10.5146 13.0217 10.6178C13.394 10.721 13.7273 10.9323 13.9795 11.2249C14.2317 11.5175 14.3914 11.8783 14.4386 12.2617C14.5017 12.7758 14.3581 13.294 14.0393 13.7022C13.7204 14.1104 13.2525 14.3753 12.7384 14.4385Z" fill="#FEBB02"/>
</svg>
