<svg width="33" height="33" viewBox="0 0 33 33" fill="none" xmlns="http://www.w3.org/2000/svg">
<path d="M4.95 6.60005C4.95 4.77989 6.42984 3.30005 8.25 3.30005H16.5C18.3202 3.30005 19.8 4.77989 19.8 6.60005V18.15C22.0791 18.15 23.925 19.996 23.925 22.275V22.8938C23.925 23.461 24.3891 23.925 24.9562 23.925C25.5234 23.925 25.9875 23.461 25.9875 22.8938V16.3093C24.3117 15.7833 23.1 14.221 23.1 12.375V10.725C23.1 10.2713 23.4713 9.90005 23.925 9.90005H24.75V7.42505C24.75 6.9713 25.1213 6.60005 25.575 6.60005C26.0287 6.60005 26.4 6.9713 26.4 7.42505V9.90005H28.05V7.42505C28.05 6.9713 28.4212 6.60005 28.875 6.60005C29.3287 6.60005 29.7 6.9713 29.7 7.42505V9.90005H30.525C30.9788 9.90005 31.35 10.2713 31.35 10.725V12.375C31.35 14.221 30.1383 15.7833 28.4625 16.3093V22.8938C28.4625 24.8325 26.895 26.4 24.9562 26.4C23.0175 26.4 21.45 24.8325 21.45 22.8938V22.275C21.45 21.3624 20.7127 20.625 19.8 20.625V27.2972C20.2795 27.4674 20.625 27.9263 20.625 28.4625C20.625 29.1483 20.0733 29.7 19.3875 29.7H5.3625C4.67672 29.7 4.125 29.1483 4.125 28.4625C4.125 27.9211 4.47047 27.4674 4.95 27.2972V6.60005ZM9.21422 13.0815H11.2252L10.1475 16.531C10.0238 16.9229 10.3177 17.325 10.7302 17.325C10.8797 17.325 11.0189 17.2735 11.1323 17.1755L16.0102 12.9474C16.17 12.8082 16.2628 12.6071 16.2628 12.3957C16.2628 11.9935 15.938 11.6686 15.5358 11.6686H13.5248L14.6025 8.21911C14.7263 7.82724 14.4323 7.42505 14.0198 7.42505C13.8703 7.42505 13.7311 7.47661 13.6177 7.57458L8.73984 11.8027C8.58 11.9419 8.48719 12.143 8.48719 12.3544C8.48719 12.7566 8.81203 13.0815 9.21422 13.0815Z" fill="#B5B5B5"/>
</svg>
