<svg width="52" height="52" viewBox="0 0 52 52" fill="none" xmlns="http://www.w3.org/2000/svg">
<path d="M29.25 47.125H22.75C22.3191 47.125 21.9057 47.2962 21.601 47.601C21.2963 47.9057 21.125 48.3191 21.125 48.75C21.125 49.181 21.2963 49.5943 21.601 49.8991C21.9057 50.2038 22.3191 50.375 22.75 50.375H29.25C29.681 50.375 30.0943 50.2038 30.3991 49.8991C30.7038 49.5943 30.875 49.181 30.875 48.75C30.875 48.3191 30.7038 47.9057 30.3991 47.601C30.0943 47.2962 29.681 47.125 29.25 47.125ZM30.875 42.25H21.125C20.6941 42.25 20.2807 42.4212 19.976 42.726C19.6713 43.0307 19.5 43.4441 19.5 43.875C19.5 44.306 19.6713 44.7193 19.976 45.0241C20.2807 45.3288 20.6941 45.5 21.125 45.5H30.875C31.306 45.5 31.7193 45.3288 32.0241 45.0241C32.3288 44.7193 32.5 44.306 32.5 43.875C32.5 43.4441 32.3288 43.0307 32.0241 42.726C31.7193 42.4212 31.306 42.25 30.875 42.25ZM37.5193 6.367C34.4653 3.30895 30.3743 1.62505 26 1.62505C23.8646 1.61996 21.7493 2.0368 19.7754 2.85164C17.8016 3.66647 16.0082 4.86324 14.4982 6.37321C12.9882 7.88318 11.7915 9.67659 10.9766 11.6504C10.1618 13.6243 9.74496 15.7396 9.75005 17.875C9.75005 22.6099 11.565 27.039 14.7266 30.026L15.1694 30.4414C16.9986 32.1517 19.5 34.4947 19.5 36.5625V39C19.5 39.431 19.6713 39.8443 19.976 40.1491C20.2807 40.4538 20.6941 40.625 21.125 40.625H23.5625C23.778 40.625 23.9847 40.5394 24.1371 40.3871C24.2894 40.2347 24.375 40.028 24.375 39.8125V27.9115C24.3751 27.7471 24.3253 27.5867 24.2323 27.4512C24.1393 27.3158 24.0074 27.2117 23.854 27.1528C22.9157 26.77 22.0242 26.281 21.1972 25.6954C21.0113 25.5767 20.8515 25.4214 20.7276 25.239C20.6037 25.0566 20.5182 24.8508 20.4763 24.6343C20.4344 24.4178 20.4371 24.195 20.4841 23.9795C20.531 23.7641 20.6214 23.5604 20.7496 23.381C20.8778 23.2016 21.0412 23.0501 21.2299 22.9359C21.4185 22.8216 21.6284 22.7469 21.8468 22.7164C22.0652 22.6859 22.2876 22.7002 22.5003 22.7583C22.713 22.8165 22.9117 22.9173 23.0842 23.0547C23.8357 23.5869 25.283 24.375 26 24.375C26.7171 24.375 28.1643 23.5849 28.9179 23.0547C29.2688 22.8341 29.6907 22.756 30.0974 22.8362C30.504 22.9164 30.8646 23.149 31.1054 23.4863C31.3462 23.8237 31.449 24.2403 31.3928 24.6509C31.3366 25.0615 31.1256 25.4352 30.8029 25.6954C29.9757 26.2799 29.0843 26.7679 28.1461 27.1497C27.9927 27.2087 27.8608 27.3127 27.7678 27.4482C27.6748 27.5836 27.625 27.7441 27.625 27.9084V39.8125C27.625 40.028 27.7106 40.2347 27.863 40.3871C28.0154 40.5394 28.2221 40.625 28.4375 40.625H30.875C31.306 40.625 31.7193 40.4538 32.0241 40.1491C32.3288 39.8443 32.5 39.431 32.5 39V36.5625C32.5 34.5435 34.9741 32.2025 36.7809 30.4922L37.2796 30.0189C40.5316 26.9141 42.25 22.7104 42.25 17.875C42.2608 15.7394 41.8483 13.6229 41.0363 11.6476C40.2243 9.67236 39.0289 7.87759 37.5193 6.367Z" fill="white"/>
</svg>
