<svg width="24" height="24" viewBox="0 0 24 24" fill="none" xmlns="http://www.w3.org/2000/svg">
<path d="M8.9502 8.60005C8.95125 6.86321 9.64168 5.1978 10.8698 3.96967C12.0979 2.74154 13.7634 2.05111 15.5002 2.05005C19.0962 2.05005 22.0502 4.86905 22.0502 8.50005C22.0491 10.2369 21.3587 11.9023 20.1306 13.1304C18.9024 14.3586 17.237 15.049 15.5002 15.05C14.9763 15.0479 14.4548 14.9793 13.9482 14.846C13.9363 15.1692 13.7996 15.4751 13.5669 15.6996C13.3342 15.9242 13.0236 16.0497 12.7002 16.05H10.9502V17.8C10.9502 18.49 10.3902 19.05 9.7002 19.05H7.9502V20.3C7.9502 20.7642 7.76582 21.2093 7.43763 21.5375C7.10944 21.8657 6.66432 22.05 6.2002 22.05H3.7002C3.23607 22.05 2.79095 21.8657 2.46276 21.5375C2.13457 21.2093 1.9502 20.7642 1.9502 20.3V18.128C1.9502 17.3981 2.2402 16.699 2.7562 16.184L8.9902 9.94805C9.02026 9.91577 9.04227 9.87684 9.05443 9.83444C9.0666 9.79203 9.06857 9.74736 9.0602 9.70405C8.99164 9.33993 8.95484 8.97054 8.9502 8.60005ZM18.2502 7.00005C18.2502 6.66853 18.1185 6.35059 17.8841 6.11617C17.6497 5.88174 17.3317 5.75005 17.0002 5.75005C16.6687 5.75005 16.3507 5.88174 16.1163 6.11617C15.8819 6.35059 15.7502 6.66853 15.7502 7.00005C15.7502 7.33157 15.8819 7.64951 16.1163 7.88393C16.3507 8.11835 16.6687 8.25005 17.0002 8.25005C17.3317 8.25005 17.6497 8.11835 17.8841 7.88393C18.1185 7.64951 18.2502 7.33157 18.2502 7.00005Z" fill="#B5B5B5"/>
</svg>
