<svg width="25" height="20" viewBox="0 0 25 20" fill="none" xmlns="http://www.w3.org/2000/svg">
<path d="M2.5 3.75C2.5 2.37109 3.62109 1.25 5 1.25H20C21.3789 1.25 22.5 2.37109 22.5 3.75V13.75H20V3.75H5V13.75H2.5V3.75ZM0 15.75C0 15.3359 0.335938 15 0.75 15H24.25C24.6641 15 25 15.3359 25 15.75C25 17.4062 23.6562 18.75 22 18.75H3C1.34375 18.75 0 17.4062 0 15.75ZM10.9766 8.16406L9.76562 9.375L10.9766 10.5859C11.3438 10.9531 11.3438 11.5469 10.9766 11.9102C10.6094 12.2734 10.0156 12.2773 9.65234 11.9102L7.77734 10.0352C7.41016 9.66797 7.41016 9.07422 7.77734 8.71094L9.65234 6.83594C10.0195 6.46875 10.6133 6.46875 10.9766 6.83594C11.3398 7.20312 11.3438 7.79687 10.9766 8.16016V8.16406ZM15.3516 6.83594L17.2266 8.71094C17.5938 9.07812 17.5938 9.67188 17.2266 10.0352L15.3516 11.9102C14.9844 12.2773 14.3906 12.2773 14.0273 11.9102C13.6641 11.543 13.6602 10.9492 14.0273 10.5859L15.2383 9.375L14.0273 8.16406C13.6602 7.79688 13.6602 7.20313 14.0273 6.83984C14.3945 6.47656 14.9883 6.47266 15.3516 6.83984V6.83594Z" fill="#FEBB02"/>
</svg>
