<svg width="26" height="25" viewBox="0 0 26 25" fill="none" xmlns="http://www.w3.org/2000/svg">
<path d="M4.49238 4.948C4.1476 4.948 3.81694 5.08518 3.57314 5.32937C3.32935 5.57356 3.19238 5.90475 3.19238 6.25008C3.19238 6.59542 3.32935 6.92661 3.57314 7.17079C3.81694 7.41498 4.1476 7.55217 4.49238 7.55217H4.50278C4.84756 7.55217 5.17822 7.41498 5.42202 7.17079C5.66582 6.92661 5.80278 6.59542 5.80278 6.25008C5.80278 5.90475 5.66582 5.57356 5.42202 5.32937C5.17822 5.08518 4.84756 4.948 4.50278 4.948H4.49238ZM8.64198 5.46883C8.43512 5.46883 8.23672 5.55114 8.09044 5.69765C7.94416 5.84417 7.86198 6.04288 7.86198 6.25008C7.86198 6.45728 7.94416 6.656 8.09044 6.80251C8.23672 6.94902 8.43512 7.03133 8.64198 7.03133H21.122C21.3289 7.03133 21.5273 6.94902 21.6735 6.80251C21.8198 6.656 21.902 6.45728 21.902 6.25008C21.902 6.04288 21.8198 5.84417 21.6735 5.69765C21.5273 5.55114 21.3289 5.46883 21.122 5.46883H8.64198ZM8.64198 17.9688C8.43512 17.9688 8.23672 18.0511 8.09044 18.1977C7.94416 18.3442 7.86198 18.5429 7.86198 18.7501C7.86198 18.9573 7.94416 19.156 8.09044 19.3025C8.23672 19.449 8.43512 19.5313 8.64198 19.5313H21.122C21.3289 19.5313 21.5273 19.449 21.6735 19.3025C21.8198 19.156 21.902 18.9573 21.902 18.7501C21.902 18.5429 21.8198 18.3442 21.6735 18.1977C21.5273 18.0511 21.3289 17.9688 21.122 17.9688H8.64198ZM7.86198 12.5001C7.86198 12.2929 7.94416 12.0942 8.09044 11.9477C8.23672 11.8011 8.43512 11.7188 8.64198 11.7188H21.122C21.3289 11.7188 21.5273 11.8011 21.6735 11.9477C21.8198 12.0942 21.902 12.2929 21.902 12.5001C21.902 12.7073 21.8198 12.906 21.6735 13.0525C21.5273 13.199 21.3289 13.2813 21.122 13.2813H8.64198C8.43512 13.2813 8.23672 13.199 8.09044 13.0525C7.94416 12.906 7.86198 12.7073 7.86198 12.5001ZM3.19238 12.5001C3.19238 11.7813 3.77478 11.198 4.49238 11.198H4.50278C4.84756 11.198 5.17822 11.3352 5.42202 11.5794C5.66582 11.8236 5.80278 12.1547 5.80278 12.5001C5.80278 12.8454 5.66582 13.1766 5.42202 13.4208C5.17822 13.665 4.84756 13.8022 4.50278 13.8022H4.49238C3.77478 13.8022 3.19238 13.2188 3.19238 12.5001ZM4.49238 17.448C4.1476 17.448 3.81694 17.5852 3.57314 17.8294C3.32935 18.0736 3.19238 18.4047 3.19238 18.7501C3.19238 19.0954 3.32935 19.4266 3.57314 19.6708C3.81694 19.915 4.1476 20.0522 4.49238 20.0522H4.50278C4.84756 20.0522 5.17822 19.915 5.42202 19.6708C5.66582 19.4266 5.80278 19.0954 5.80278 18.7501C5.80278 18.4047 5.66582 18.0736 5.42202 17.8294C5.17822 17.5852 4.84756 17.448 4.50278 17.448H4.49238Z" fill="white"/>
</svg>
