<svg width="20" height="20" viewBox="0 0 20 20" fill="none" xmlns="http://www.w3.org/2000/svg">
<path d="M4.99967 18.3334H14.9997C15.9163 18.3334 16.6663 17.5834 16.6663 16.6667V9.16675C16.6663 8.25008 15.9163 7.50008 14.9997 7.50008H14.1663V5.83341C14.1663 3.53341 12.2997 1.66675 9.99967 1.66675C7.69967 1.66675 5.83301 3.53341 5.83301 5.83341V7.50008H4.99967C4.08301 7.50008 3.33301 8.25008 3.33301 9.16675V16.6667C3.33301 17.5834 4.08301 18.3334 4.99967 18.3334ZM7.49967 5.83341C7.49967 4.45841 8.62467 3.33341 9.99967 3.33341C11.3747 3.33341 12.4997 4.45841 12.4997 5.83341V7.50008H7.49967V5.83341Z" fill="#B5B5B5"/>
</svg>
