<svg width="30" height="27" viewBox="0 0 30 27" fill="none" xmlns="http://www.w3.org/2000/svg">
<path d="M21.25 6.32812C21.25 9.20742 17.4427 14.3385 15.7708 16.4531C15.3698 16.9594 14.625 16.9594 14.2292 16.4531C12.5573 14.3385 8.75 9.20742 8.75 6.32812C8.75 2.83184 11.5469 0 15 0C18.4531 0 21.25 2.83184 21.25 6.32812ZM21.6667 10.568C21.849 10.2041 22.0156 9.84023 22.1667 9.48164C22.1927 9.41836 22.2188 9.3498 22.2448 9.28652L28.2865 6.83965C29.1094 6.50742 30 7.11914 30 8.01562V22.2961C30 22.8129 29.6875 23.277 29.2135 23.4721L21.6667 26.5254V10.568ZM7.16667 7.29316C7.29167 8.03672 7.54167 8.78555 7.83333 9.48164C7.98437 9.84023 8.15104 10.2041 8.33333 10.568V23.8254L1.71354 26.5096C0.890625 26.8418 0 26.2301 0 25.3336V11.0531C0 10.5363 0.3125 10.0723 0.786458 9.87715L7.17187 7.29316H7.16667ZM17.0729 17.5078C17.7969 16.5902 18.9323 15.0979 20 13.4473V26.5939L10 23.6988V13.4473C11.0677 15.0979 12.2031 16.5902 12.9271 17.5078C13.9948 18.8578 16.0052 18.8578 17.0729 17.5078ZM15 8.01562C15.5525 8.01562 16.0824 7.79339 16.4731 7.3978C16.8638 7.00222 17.0833 6.46569 17.0833 5.90625C17.0833 5.34681 16.8638 4.81028 16.4731 4.4147C16.0824 4.01911 15.5525 3.79688 15 3.79688C14.4475 3.79688 13.9176 4.01911 13.5269 4.4147C13.1362 4.81028 12.9167 5.34681 12.9167 5.90625C12.9167 6.46569 13.1362 7.00222 13.5269 7.3978C13.9176 7.79339 14.4475 8.01562 15 8.01562Z" fill="#A1A1A1"/>
</svg>
