<svg width="15" height="15" viewBox="0 0 15 15" fill="none" xmlns="http://www.w3.org/2000/svg">
<path d="M5.9375 10C4.80208 10 3.84125 9.60667 3.055 8.82C2.26875 8.03333 1.87542 7.0725 1.875 5.9375C1.87458 4.8025 2.26792 3.84167 3.055 3.055C3.84208 2.26833 4.80292 1.875 5.9375 1.875C7.07208 1.875 8.03313 2.26833 8.82063 3.055C9.60813 3.84167 10.0013 4.8025 10 5.9375C10 6.39583 9.92708 6.82812 9.78125 7.23437C9.63542 7.64062 9.4375 8 9.1875 8.3125L12.6875 11.8125C12.8021 11.9271 12.8594 12.0729 12.8594 12.25C12.8594 12.4271 12.8021 12.5729 12.6875 12.6875C12.5729 12.8021 12.4271 12.8594 12.25 12.8594C12.0729 12.8594 11.9271 12.8021 11.8125 12.6875L8.3125 9.1875C8 9.4375 7.64063 9.63542 7.23438 9.78125C6.82813 9.92708 6.39583 10 5.9375 10ZM5.9375 8.75C6.71875 8.75 7.38292 8.47667 7.93 7.93C8.47708 7.38333 8.75042 6.71917 8.75 5.9375C8.74958 5.15583 8.47625 4.49188 7.93 3.94563C7.38375 3.39938 6.71958 3.12583 5.9375 3.125C5.15542 3.12417 4.49146 3.39771 3.94563 3.94563C3.39979 4.49354 3.12625 5.1575 3.125 5.9375C3.12375 6.7175 3.39729 7.38167 3.94563 7.93C4.49396 8.47833 5.15792 8.75167 5.9375 8.75Z" fill="#B5B5B5"/>
</svg>
