<svg width="25" height="25" viewBox="0 0 25 25" fill="none" xmlns="http://www.w3.org/2000/svg">
<path d="M12.5 0L11.9062 0.28125L0.96875 4.875L0 5.28125V6.25C0 11.4375 2.09375 16 4.59375 19.3438C5.84375 21 7.1875 22.375 8.5 23.3438C9.8125 24.3125 11.0938 25 12.5 25C13.9375 25 15.1875 24.3125 16.5 23.3438C17.8125 22.375 19.1562 21 20.4062 19.3438C22.9062 16 25 11.4375 25 6.25V5.28125L24.0312 4.875L13.0938 0.28125L12.5 0ZM12.5 3.40625V21.875C12.375 21.875 11.4688 21.6562 10.4375 20.9062C9.40625 20.1562 8.21875 18.9375 7.125 17.5C4.90557 14.5153 3.58306 10.9596 3.3125 7.25L12.5 3.4375V3.40625Z" fill="#FEBB02"/>
</svg>
