<svg width="31" height="32" viewBox="0 0 31 32" fill="none" xmlns="http://www.w3.org/2000/svg">
<path d="M22.2812 7H8.71875C6.40639 7 4.18875 7.94821 2.55366 9.63604C0.91858 11.3239 0 13.6131 0 16C0 18.3869 0.91858 20.6761 2.55366 22.364C4.18875 24.0518 6.40639 25 8.71875 25H22.2812C24.5936 25 26.8113 24.0518 28.4463 22.364C30.0814 20.6761 31 18.3869 31 16C31 13.6131 30.0814 11.3239 28.4463 9.63604C26.8113 7.94821 24.5936 7 22.2812 7ZM22.2812 21.375C21.2514 21.375 20.2447 21.0598 19.3884 20.4691C18.5321 19.8785 17.8647 19.0391 17.4706 18.0569C17.0765 17.0748 16.9734 15.994 17.1743 14.9514C17.3752 13.9087 17.8711 12.951 18.5993 12.1993C19.3275 11.4476 20.2553 10.9357 21.2654 10.7283C22.2755 10.5209 23.3224 10.6273 24.2739 11.0341C25.2254 11.441 26.0386 12.1299 26.6107 13.0138C27.1829 13.8977 27.4883 14.9369 27.4883 16C27.4892 16.7061 27.3552 17.4055 27.0939 18.0581C26.8325 18.7107 26.449 19.3036 25.9653 19.8029C25.4816 20.3022 24.9072 20.6981 24.275 20.9679C23.6428 21.2376 22.9653 21.376 22.2812 21.375Z" fill="#FEBB02"/>
</svg>
