<svg width="34" height="34" viewBox="0 0 34 34" fill="none" xmlns="http://www.w3.org/2000/svg">
<path fill-rule="evenodd" clip-rule="evenodd" d="M31.6565 18.4366C31.3144 20.6029 30.2103 22.5759 28.543 24.0006C26.8757 25.4254 24.7546 26.2083 22.5615 26.2084H11.4378C8.99562 26.2084 6.65345 25.2383 4.92655 23.5114C3.19965 21.7845 2.22949 19.4423 2.22949 17.0001C2.22949 14.5579 3.19965 12.2157 4.92655 10.4888C6.65345 8.76191 8.99562 7.79175 11.4378 7.79175H22.5615C23.8922 7.79183 25.207 8.08033 26.4155 8.63736C27.624 9.19439 28.6974 10.0067 29.5618 11.0184C30.4263 12.0301 31.0611 13.2172 31.4227 14.4978C31.7843 15.7784 31.8641 17.1222 31.6565 18.4366ZM11.333 21.9584C10.6396 21.956 9.95443 21.808 9.32185 21.524C8.68926 21.2401 8.12336 20.8264 7.66077 20.3099C7.19818 19.7933 6.84921 19.1854 6.63645 18.5254C6.42368 17.8655 6.35187 17.1682 6.42566 16.4787C6.55279 15.2643 7.12408 14.1396 8.02982 13.3207C8.93557 12.5018 10.1119 12.0463 11.333 12.0417C12.0264 12.0442 12.7116 12.1921 13.3441 12.4761C13.9767 12.7601 14.5426 13.1738 15.0052 13.6903C15.4678 14.2068 15.8168 14.8148 16.0295 15.4747C16.2423 16.1347 16.3141 16.832 16.2403 17.5214C16.1132 18.7359 15.5419 19.8605 14.6362 20.6795C13.7304 21.4984 12.5541 21.9539 11.333 21.9584Z" fill="#B5B5B5"/>
</svg>
