<svg width="19" height="19" viewBox="0 0 19 19" fill="none" xmlns="http://www.w3.org/2000/svg">
<path d="M12.6663 13.4584V15.0418H1.58301V13.4584C1.58301 13.4584 1.58301 10.2918 7.12467 10.2918C12.6663 10.2918 12.6663 13.4584 12.6663 13.4584ZM9.89551 5.93761C9.89551 5.38959 9.733 4.85388 9.42854 4.39822C9.12407 3.94256 8.69133 3.58741 8.18503 3.37769C7.67872 3.16798 7.1216 3.1131 6.58411 3.22002C6.04662 3.32693 5.55291 3.59083 5.1654 3.97834C4.77789 4.36584 4.514 4.85956 4.40708 5.39705C4.30017 5.93454 4.35504 6.49166 4.56476 6.99796C4.77448 7.50427 5.12962 7.93701 5.58528 8.24147C6.04094 8.54594 6.57665 8.70844 7.12467 8.70844C7.85954 8.70844 8.56432 8.41652 9.08395 7.89689C9.60358 7.37725 9.89551 6.67248 9.89551 5.93761ZM12.6188 10.2918C13.1055 10.6684 13.5037 11.1471 13.7855 11.6942C14.0673 12.2413 14.2257 12.8435 14.2497 13.4584V15.0418H17.4163V13.4584C17.4163 13.4584 17.4163 10.5847 12.6188 10.2918ZM11.8747 3.16678C11.3298 3.16424 10.7971 3.32711 10.3468 3.63386C10.8276 4.30578 11.0862 5.11134 11.0862 5.93761C11.0862 6.76388 10.8276 7.56944 10.3468 8.24136C10.7971 8.54811 11.3298 8.71098 11.8747 8.70844C12.6095 8.70844 13.3143 8.41652 13.8339 7.89689C14.3536 7.37725 14.6455 6.67248 14.6455 5.93761C14.6455 5.20274 14.3536 4.49797 13.8339 3.97834C13.3143 3.4587 12.6095 3.16678 11.8747 3.16678Z" fill="#B5B5B5"/>
</svg>
